<svg xmlns="http://www.w3.org/2000/svg" viewBox="0 0 100 100" width="100%" height="100%">
  <!-- Shield Outer Border -->
  <path 
    d="M 50 8 C 66 8, 83 13, 88 19 C 90 48, 84 76, 50 94 C 16 76, 10 48, 12 19 C 17 13, 34 8, 50 8 Z" 
    fill="none" 
    stroke="#EF4444" 
    stroke-width="6.5" 
    stroke-linejoin="round" 
    stroke-linecap="round"
  />
  
  <!-- Flame Graphic -->
  <path 
    d="M 50 22 C 46 29, 41 33, 38 39 C 35 44, 38 49, 42 48 C 40 44, 42 39, 45 36 C 46 41, 51 45, 57 44 C 60 38, 58 31, 54 27 C 55 31, 53 35, 50 37 C 51 33, 52 27, 50 22 Z" 
    fill="#EF4444"
  />

  <!-- Metric Chart Bars (Left, Center, Right) -->
  <!-- Left Bar (lowest) -->
  <rect x="36" y="66" width="7.5" height="13" rx="1.5" fill="#1E293B" />
  <!-- Center Bar (medium) -->
  <rect x="46.25" y="54" width="7.5" height="25" rx="1.5" fill="#1E293B" />
  <!-- Right Bar (highest) -->
  <rect x="56.5" y="44" width="7.5" height="35" rx="1.5" fill="#1E293B" />
</svg>
